<svg xmlns="http://www.w3.org/2000/svg" viewBox="0 0 2048 1720" width="2048" height="1720">
<style>
.main { fill:none; stroke:#000; stroke-width:5.5; stroke-linecap:round; stroke-linejoin:round; }
.thin { fill:none; stroke:#000; stroke-width:4.5; stroke-linecap:round; stroke-linejoin:round; }
.hatch { fill:none; stroke:#000; stroke-width:4; stroke-linecap:round; stroke-linejoin:round; }
</style>

<path d="M 235 265
C 370 120, 520 92, 690 92
L 1360 92
C 1530 92, 1680 120, 1815 265
C 1928 388, 1954 585, 1968 820
C 1980 1035, 1988 1235, 1974 1470
C 1962 1625, 1885 1678, 1768 1664
C 1560 1638, 1308 1608, 1024 1608
C 742 1608, 490 1638, 280 1664
C 164 1678, 86 1625, 74 1470
C 60 1235, 68 1035, 80 820
C 94 585, 122 388, 235 265
Z" class="main"/>
<path d="M 295 235 L 585 448 L 585 402 L 371 235 Z" class="main"/>
<path d="M 1753 235 L 1463 448 L 1463 402 L 1677 235 Z" class="main"/>
<path d="M 410 182 L 523 182 Q 555 182 555 214 L 555 302 Q 555 332 525 350 L 489 371 Q 459 388 431 368 L 403 348 Q 377 329 377 298 L 377 216 Q 377 182 410 182 Z" class="main"/>
<path d="M 1638 182 L 1525 182 Q 1493 182 1493 214 L 1493 302 Q 1493 332 1523 350 L 1559 371 Q 1589 388 1617 368 L 1645 348 Q 1671 329 1671 298 L 1671 216 Q 1671 182 1638 182 Z" class="main"/>
<rect x="575.0" y="140.0" width="898.0" height="612.0" rx="44.0" ry="44.0" class="main"/>
<rect x="600.0" y="165.0" width="848.0" height="562.0" rx="34.0" ry="34.0" class="main"/>
<circle cx="292.0" cy="485.0" r="144.0" class="main"/>
<circle cx="292.0" cy="485.0" r="74.0" class="main"/>
<polyline points="274.0,392.0 292.0,374.0 310.0,392.0" class="thin" fill="none"/>
<polyline points="274.0,578.0 292.0,596.0 310.0,578.0" class="thin" fill="none"/>
<polyline points="182.0,467.0 164.0,485.0 182.0,503.0" class="thin" fill="none"/>
<polyline points="402.0,467.0 420.0,485.0 402.0,503.0" class="thin" fill="none"/>
<rect x="66.0" y="706.0" width="106.0" height="46.0" rx="22.0" ry="22.0" class="main"/>
<line x1="95.0" y1="710.0" x2="95.0" y2="748.0" class="thin"/>
<circle cx="258.0" cy="726.0" r="11.0" class="main"/>
<circle cx="327.0" cy="726.0" r="11.0" class="main"/>
<circle cx="396.0" cy="726.0" r="11.0" class="main"/>
<rect x="1503.0" y="365.0" width="245.0" height="62.0" rx="28.0" ry="28.0" class="main"/>
<line x1="1592.0" y1="377.0" x2="1592.0" y2="415.0" class="thin"/>
<line x1="1658.0" y1="377.0" x2="1658.0" y2="415.0" class="thin"/>
<line x1="1540.0" y1="396.0" x2="1576.0" y2="396.0" class="thin"/>
<line x1="1702.0" y1="378.0" x2="1702.0" y2="414.0" class="thin"/>
<line x1="1684.0" y1="396.0" x2="1720.0" y2="396.0" class="thin"/>
<circle cx="1496.0" cy="534.0" r="52.0" class="main"/>
<circle cx="1632.0" cy="534.0" r="52.0" class="main"/>
<circle cx="1774.0" cy="534.0" r="52.0" class="main"/>
<line x1="1468.0" y1="560.0" x2="1515.0" y2="513.0" class="thin"/>
<line x1="1452.0" y1="534.0" x2="1478.0" y2="534.0" class="thin"/>
<line x1="1452.0" y1="534.0" x2="1437.0" y2="548.0" class="thin"/>
<line x1="1452.0" y1="534.0" x2="1437.0" y2="520.0" class="thin"/>
<rect x="1604.0" y="514.0" width="56.0" height="38.0" rx="8.0" ry="8.0" class="thin"/>
<line x1="1616.0" y1="533.0" x2="1648.0" y2="533.0" class="thin"/>
<line x1="1751.0" y1="511.0" x2="1797.0" y2="557.0" class="thin"/>
<line x1="1797.0" y1="511.0" x2="1751.0" y2="557.0" class="thin"/>
<rect x="1500.0" y="623.0" width="230.0" height="104.0" rx="50.0" ry="50.0" class="main"/>
<line x1="1554.0" y1="637.0" x2="1554.0" y2="713.0" class="hatch"/>
<line x1="1566.0" y1="637.0" x2="1566.0" y2="713.0" class="hatch"/>
<line x1="1578.0" y1="637.0" x2="1578.0" y2="713.0" class="hatch"/>
<line x1="1590.0" y1="637.0" x2="1590.0" y2="713.0" class="hatch"/>
<line x1="1602.0" y1="637.0" x2="1602.0" y2="713.0" class="hatch"/>
<line x1="1614.0" y1="637.0" x2="1614.0" y2="713.0" class="hatch"/>
<line x1="1626.0" y1="637.0" x2="1626.0" y2="713.0" class="hatch"/>
<line x1="1638.0" y1="637.0" x2="1638.0" y2="713.0" class="hatch"/>
<line x1="1650.0" y1="637.0" x2="1650.0" y2="713.0" class="hatch"/>
<line x1="1538.0" y1="637.0" x2="1538.0" y2="713.0" class="thin"/>
<line x1="1694.0" y1="637.0" x2="1694.0" y2="713.0" class="thin"/>
<rect x="740.2" y="505.6" width="39.6" height="52.8" rx="15.4" ry="15.4" class="thin"/>
<line x1="760.0" y1="512.2" x2="760.0" y2="554.0" class="thin"/>
<path d="M 749.0 525.4 C 749.0 512.2, 760.0 512.2, 760.0 527.6" class="thin"/>
<path d="M 760.0 558.0 L 760.0 596.0 L 753.0 606.0 L 750.0 630.0 L 736.0 626.0 L 732.0 608.0 L 740.0 598.0 L 740.0 628.0 L 723.0 642.0 L 732.0 670.0 L 750.0 674.0 L 763.0 682.0 L 778.0 673.0 L 778.0 610.0 L 770.0 598.0 L 767.0 628.0" class="thin"/>
<rect x="1268.2" y="505.6" width="39.6" height="52.8" rx="15.4" ry="15.4" class="thin"/>
<line x1="1288.0" y1="512.2" x2="1288.0" y2="554.0" class="thin"/>
<path d="M 1277.0 525.4 C 1277.0 512.2, 1288.0 512.2, 1288.0 527.6" class="thin"/>
<path d="M 1288.0 558.0 L 1288.0 596.0 L 1281.0 606.0 L 1278.0 630.0 L 1264.0 626.0 L 1260.0 608.0 L 1268.0 598.0 L 1268.0 628.0 L 1251.0 642.0 L 1260.0 670.0 L 1278.0 674.0 L 1291.0 682.0 L 1306.0 673.0 L 1306.0 610.0 L 1298.0 598.0 L 1295.0 628.0" class="thin"/>
<line x1="1024.0" y1="494.0" x2="1024.0" y2="546.0" class="thin"/>
<line x1="1011.0" y1="506.0" x2="1024.0" y2="494.0" class="thin"/>
<line x1="1037.0" y1="506.0" x2="1024.0" y2="494.0" class="thin"/>
<line x1="1024.0" y1="562.0" x2="1024.0" y2="612.0" class="thin"/>
<line x1="1011.0" y1="598.0" x2="1024.0" y2="612.0" class="thin"/>
<line x1="1037.0" y1="598.0" x2="1024.0" y2="612.0" class="thin"/>
<path d="M 1024.0 562.0 L 1024.0 600.0 L 1017.0 610.0 L 1014.0 634.0 L 1000.0 630.0 L 996.0 612.0 L 1004.0 602.0 L 1004.0 632.0 L 987.0 646.0 L 996.0 674.0 L 1014.0 678.0 L 1027.0 686.0 L 1042.0 677.0 L 1042.0 614.0 L 1034.0 602.0 L 1031.0 632.0" class="thin"/>
<rect x="68.0" y="800.0" width="102.0" height="84.0" rx="22.0" ry="22.0" class="main"/>
<rect x="185.0" y="800.0" width="102.0" height="84.0" rx="22.0" ry="22.0" class="main"/>
<rect x="302.0" y="800.0" width="102.0" height="84.0" rx="22.0" ry="22.0" class="main"/>
<rect x="419.0" y="800.0" width="102.0" height="84.0" rx="22.0" ry="22.0" class="main"/>
<rect x="536.0" y="800.0" width="102.0" height="84.0" rx="22.0" ry="22.0" class="main"/>
<rect x="653.0" y="800.0" width="102.0" height="84.0" rx="22.0" ry="22.0" class="main"/>
<rect x="770.0" y="800.0" width="102.0" height="84.0" rx="22.0" ry="22.0" class="main"/>
<rect x="887.0" y="800.0" width="102.0" height="84.0" rx="22.0" ry="22.0" class="main"/>
<rect x="1004.0" y="800.0" width="102.0" height="84.0" rx="22.0" ry="22.0" class="main"/>
<rect x="1121.0" y="800.0" width="102.0" height="84.0" rx="22.0" ry="22.0" class="main"/>
<rect x="1238.0" y="800.0" width="102.0" height="84.0" rx="22.0" ry="22.0" class="main"/>
<rect x="1355.0" y="800.0" width="102.0" height="84.0" rx="22.0" ry="22.0" class="main"/>
<rect x="1472.0" y="800.0" width="102.0" height="84.0" rx="22.0" ry="22.0" class="main"/>
<rect x="1589.0" y="800.0" width="102.0" height="84.0" rx="22.0" ry="22.0" class="main"/>
<rect x="1706.0" y="800.0" width="102.0" height="84.0" rx="22.0" ry="22.0" class="main"/>
<rect x="1823.0" y="800.0" width="132.0" height="84.0" rx="22.0" ry="22.0" class="main"/>
<rect x="72.0" y="936.0" width="106.0" height="84.0" rx="22.0" ry="22.0" class="main"/>
<rect x="193.0" y="936.0" width="106.0" height="84.0" rx="22.0" ry="22.0" class="main"/>
<rect x="314.0" y="936.0" width="106.0" height="84.0" rx="22.0" ry="22.0" class="main"/>
<rect x="435.0" y="936.0" width="106.0" height="84.0" rx="22.0" ry="22.0" class="main"/>
<rect x="556.0" y="936.0" width="106.0" height="84.0" rx="22.0" ry="22.0" class="main"/>
<rect x="677.0" y="936.0" width="106.0" height="84.0" rx="22.0" ry="22.0" class="main"/>
<rect x="798.0" y="936.0" width="106.0" height="84.0" rx="22.0" ry="22.0" class="main"/>
<rect x="919.0" y="936.0" width="106.0" height="84.0" rx="22.0" ry="22.0" class="main"/>
<rect x="1040.0" y="936.0" width="106.0" height="84.0" rx="22.0" ry="22.0" class="main"/>
<rect x="1161.0" y="936.0" width="106.0" height="84.0" rx="22.0" ry="22.0" class="main"/>
<rect x="1282.0" y="936.0" width="106.0" height="84.0" rx="22.0" ry="22.0" class="main"/>
<rect x="1403.0" y="936.0" width="106.0" height="84.0" rx="22.0" ry="22.0" class="main"/>
<rect x="1524.0" y="936.0" width="106.0" height="84.0" rx="22.0" ry="22.0" class="main"/>
<rect x="1645.0" y="936.0" width="106.0" height="84.0" rx="22.0" ry="22.0" class="main"/>
<rect x="1766.0" y="936.0" width="176.0" height="84.0" rx="22.0" ry="22.0" class="main"/>
<rect x="66.0" y="1070.0" width="156.0" height="92.0" rx="22.0" ry="22.0" class="main"/>
<rect x="237.0" y="1070.0" width="106.0" height="92.0" rx="22.0" ry="22.0" class="main"/>
<rect x="358.0" y="1070.0" width="106.0" height="92.0" rx="22.0" ry="22.0" class="main"/>
<rect x="479.0" y="1070.0" width="106.0" height="92.0" rx="22.0" ry="22.0" class="main"/>
<rect x="600.0" y="1070.0" width="106.0" height="92.0" rx="22.0" ry="22.0" class="main"/>
<rect x="721.0" y="1070.0" width="106.0" height="92.0" rx="22.0" ry="22.0" class="main"/>
<rect x="842.0" y="1070.0" width="106.0" height="92.0" rx="22.0" ry="22.0" class="main"/>
<rect x="963.0" y="1070.0" width="106.0" height="92.0" rx="22.0" ry="22.0" class="main"/>
<rect x="1084.0" y="1070.0" width="106.0" height="92.0" rx="22.0" ry="22.0" class="main"/>
<rect x="1205.0" y="1070.0" width="106.0" height="92.0" rx="22.0" ry="22.0" class="main"/>
<rect x="1326.0" y="1070.0" width="106.0" height="92.0" rx="22.0" ry="22.0" class="main"/>
<rect x="1447.0" y="1070.0" width="106.0" height="92.0" rx="22.0" ry="22.0" class="main"/>
<rect x="1568.0" y="1070.0" width="106.0" height="92.0" rx="22.0" ry="22.0" class="main"/>
<rect x="1689.0" y="1070.0" width="106.0" height="92.0" rx="22.0" ry="22.0" class="main"/>
<rect x="1810.0" y="1070.0" width="166.0" height="92.0" rx="22.0" ry="22.0" class="main"/>
<rect x="66.0" y="1212.0" width="174.0" height="92.0" rx="22.0" ry="22.0" class="main"/>
<rect x="255.0" y="1212.0" width="106.0" height="92.0" rx="22.0" ry="22.0" class="main"/>
<rect x="376.0" y="1212.0" width="106.0" height="92.0" rx="22.0" ry="22.0" class="main"/>
<rect x="497.0" y="1212.0" width="106.0" height="92.0" rx="22.0" ry="22.0" class="main"/>
<rect x="618.0" y="1212.0" width="106.0" height="92.0" rx="22.0" ry="22.0" class="main"/>
<rect x="739.0" y="1212.0" width="106.0" height="92.0" rx="22.0" ry="22.0" class="main"/>
<rect x="860.0" y="1212.0" width="106.0" height="92.0" rx="22.0" ry="22.0" class="main"/>
<rect x="981.0" y="1212.0" width="106.0" height="92.0" rx="22.0" ry="22.0" class="main"/>
<rect x="1102.0" y="1212.0" width="106.0" height="92.0" rx="22.0" ry="22.0" class="main"/>
<rect x="1223.0" y="1212.0" width="106.0" height="92.0" rx="22.0" ry="22.0" class="main"/>
<rect x="1344.0" y="1212.0" width="106.0" height="92.0" rx="22.0" ry="22.0" class="main"/>
<rect x="1465.0" y="1212.0" width="106.0" height="92.0" rx="22.0" ry="22.0" class="main"/>
<rect x="1586.0" y="1212.0" width="106.0" height="92.0" rx="22.0" ry="22.0" class="main"/>
<rect x="1707.0" y="1212.0" width="106.0" height="92.0" rx="22.0" ry="22.0" class="main"/>
<rect x="1828.0" y="1212.0" width="176.0" height="92.0" rx="22.0" ry="22.0" class="main"/>
<rect x="66.0" y="1356.0" width="228.0" height="92.0" rx="22.0" ry="22.0" class="main"/>
<rect x="309.0" y="1356.0" width="106.0" height="92.0" rx="22.0" ry="22.0" class="main"/>
<rect x="430.0" y="1356.0" width="106.0" height="92.0" rx="22.0" ry="22.0" class="main"/>
<rect x="551.0" y="1356.0" width="106.0" height="92.0" rx="22.0" ry="22.0" class="main"/>
<rect x="672.0" y="1356.0" width="106.0" height="92.0" rx="22.0" ry="22.0" class="main"/>
<rect x="793.0" y="1356.0" width="106.0" height="92.0" rx="22.0" ry="22.0" class="main"/>
<rect x="914.0" y="1356.0" width="106.0" height="92.0" rx="22.0" ry="22.0" class="main"/>
<rect x="1035.0" y="1356.0" width="106.0" height="92.0" rx="22.0" ry="22.0" class="main"/>
<rect x="1156.0" y="1356.0" width="106.0" height="92.0" rx="22.0" ry="22.0" class="main"/>
<rect x="1277.0" y="1356.0" width="106.0" height="92.0" rx="22.0" ry="22.0" class="main"/>
<rect x="1398.0" y="1356.0" width="106.0" height="92.0" rx="22.0" ry="22.0" class="main"/>
<rect x="1519.0" y="1356.0" width="106.0" height="92.0" rx="22.0" ry="22.0" class="main"/>
<rect x="1640.0" y="1356.0" width="106.0" height="92.0" rx="22.0" ry="22.0" class="main"/>
<rect x="1761.0" y="1356.0" width="118.0" height="92.0" rx="22.0" ry="22.0" class="main"/>
<rect x="88.0" y="1498.0" width="78.0" height="92.0" rx="22.0" ry="22.0" class="main"/>
<rect x="181.0" y="1498.0" width="106.0" height="92.0" rx="22.0" ry="22.0" class="main"/>
<rect x="302.0" y="1498.0" width="106.0" height="92.0" rx="22.0" ry="22.0" class="main"/>
<rect x="423.0" y="1498.0" width="106.0" height="92.0" rx="22.0" ry="22.0" class="main"/>
<rect x="544.0" y="1498.0" width="106.0" height="92.0" rx="22.0" ry="22.0" class="main"/>
<rect x="665.0" y="1498.0" width="106.0" height="92.0" rx="22.0" ry="22.0" class="main"/>
<rect x="786.0" y="1498.0" width="106.0" height="92.0" rx="22.0" ry="22.0" class="main"/>
<rect x="907.0" y="1498.0" width="204.0" height="92.0" rx="22.0" ry="22.0" class="main"/>
<rect x="1126.0" y="1498.0" width="106.0" height="92.0" rx="22.0" ry="22.0" class="main"/>
<rect x="1247.0" y="1498.0" width="106.0" height="92.0" rx="22.0" ry="22.0" class="main"/>
<rect x="1368.0" y="1498.0" width="106.0" height="92.0" rx="22.0" ry="22.0" class="main"/>
<rect x="1489.0" y="1498.0" width="106.0" height="92.0" rx="22.0" ry="22.0" class="main"/>
<rect x="1610.0" y="1498.0" width="106.0" height="92.0" rx="22.0" ry="22.0" class="main"/>
<rect x="1731.0" y="1498.0" width="106.0" height="92.0" rx="22.0" ry="22.0" class="main"/>
<rect x="1852.0" y="1498.0" width="78.0" height="92.0" rx="22.0" ry="22.0" class="main"/>
</svg>